<svg data-v-d3f97b9e="" xmlns="http://www.w3.org/2000/svg" viewBox="0 0 412.27304714989447 173"><!----><!----><!----><g data-v-d3f97b9e="" id="e25f21bf-cf6d-4f53-9868-b83929f2c92c" fill="black" transform="matrix(5.40464448928833,0,0,5.40464448928833,-9.394790649414062,103.20431518554688)"><path d="M1.74 3.53L4.26 3.53L2.66 12.60L3.43 12.60L5.03 3.53L7.55 3.53L7.67 2.80L1.86 2.80ZM6.62 9.97C6.62 8.96 6.91 8.17 7.50 7.60C8.08 7.03 8.78 6.75 9.60 6.75C10.15 6.75 10.61 6.93 11.00 7.29C11.40 7.65 11.59 8.15 11.59 8.81C11.59 9.77 11.28 10.54 10.65 11.13C10.03 11.72 9.37 12.01 8.67 12.01C8.04 12.01 7.54 11.83 7.17 11.48C6.81 11.13 6.62 10.62 6.62 9.97ZM12.11 6.16L11.86 7.63C11.70 7.13 11.42 6.74 11.02 6.46C10.63 6.19 10.15 6.05 9.58 6.05C8.56 6.05 7.69 6.40 6.96 7.12C6.24 7.83 5.88 8.81 5.88 10.04C5.88 10.87 6.13 11.52 6.62 12.00C7.12 12.47 7.76 12.71 8.54 12.71C9.06 12.71 9.56 12.58 10.03 12.31C10.50 12.05 10.90 11.68 11.23 11.21L10.99 12.60L11.69 12.60L12.81 6.16ZM15.58 1.68L13.65 12.60L14.35 12.60L16.28 1.68ZM16.98 9.97C16.98 8.96 17.27 8.17 17.86 7.60C18.44 7.03 19.14 6.75 19.96 6.75C20.51 6.75 20.97 6.93 21.36 7.29C21.76 7.65 21.95 8.15 21.95 8.81C21.95 9.77 21.64 10.54 21.01 11.13C20.39 11.72 19.73 12.01 19.03 12.01C18.40 12.01 17.90 11.83 17.54 11.48C17.17 11.13 16.98 10.62 16.98 9.97ZM22.47 6.16L22.22 7.63C22.06 7.13 21.78 6.74 21.38 6.46C20.99 6.19 20.51 6.05 19.94 6.05C18.92 6.05 18.05 6.40 17.32 7.12C16.60 7.83 16.24 8.81 16.24 10.04C16.24 10.87 16.49 11.52 16.98 12.00C17.48 12.47 18.12 12.71 18.90 12.71C19.42 12.71 19.92 12.58 20.39 12.31C20.86 12.05 21.26 11.68 21.59 11.21L21.35 12.60L22.05 12.60L23.17 6.16ZM24.68 9.93C24.68 9.03 24.98 8.28 25.59 7.66C26.19 7.05 26.91 6.75 27.75 6.75C28.24 6.75 28.66 6.85 28.99 7.05C29.33 7.25 29.55 7.50 29.65 7.81L29.82 6.87C29.64 6.61 29.37 6.41 29.02 6.26C28.66 6.12 28.25 6.05 27.80 6.05C26.76 6.05 25.86 6.43 25.10 7.19C24.35 7.95 23.97 8.88 23.97 9.97C23.97 10.82 24.22 11.49 24.72 11.98C25.23 12.47 25.91 12.71 26.77 12.71C27.66 12.71 28.39 12.44 28.94 11.89L29.11 10.95C28.90 11.26 28.59 11.51 28.18 11.71C27.77 11.91 27.31 12.01 26.81 12.01C26.15 12.01 25.63 11.82 25.25 11.43C24.87 11.04 24.68 10.54 24.68 9.93ZM35.34 8.54L34.62 12.60L35.32 12.60L36.06 8.40C36.12 8.10 36.15 7.84 36.15 7.62C36.15 7.10 35.99 6.71 35.66 6.45C35.34 6.18 34.90 6.05 34.34 6.05C33.40 6.05 32.67 6.44 32.14 7.24L33.12 1.68L32.42 1.68L30.49 12.60L31.19 12.60L31.92 8.50C32.05 8.00 32.34 7.59 32.77 7.25C33.21 6.92 33.69 6.75 34.22 6.75C34.66 6.75 34.97 6.83 35.15 7.01C35.32 7.18 35.41 7.46 35.41 7.85C35.41 8.03 35.38 8.26 35.34 8.54ZM37.95 9.97C37.95 8.96 38.25 8.17 38.83 7.60C39.41 7.03 40.11 6.75 40.94 6.75C41.48 6.75 41.94 6.93 42.34 7.29C42.73 7.65 42.92 8.15 42.92 8.81C42.92 9.77 42.61 10.54 41.99 11.13C41.36 11.72 40.70 12.01 40.00 12.01C39.37 12.01 38.88 11.83 38.51 11.48C38.14 11.13 37.95 10.62 37.95 9.97ZM43.44 6.16L43.19 7.63C43.03 7.13 42.75 6.74 42.36 6.46C41.96 6.19 41.48 6.05 40.91 6.05C39.89 6.05 39.02 6.40 38.30 7.12C37.57 7.83 37.21 8.81 37.21 10.04C37.21 10.87 37.46 11.52 37.95 12.00C38.45 12.47 39.09 12.71 39.87 12.71C40.39 12.71 40.89 12.58 41.36 12.31C41.83 12.05 42.23 11.68 42.56 11.21L42.32 12.60L43.02 12.60L44.14 6.16ZM49.42 6.86L44.07 12.60L49.60 12.60L49.73 11.90L45.67 11.90L51.02 6.16L45.49 6.16L45.36 6.86ZM51.63 12.22C51.63 12.38 51.68 12.51 51.79 12.62C51.89 12.73 52.02 12.78 52.19 12.78C52.36 12.78 52.50 12.73 52.60 12.62C52.70 12.51 52.75 12.38 52.75 12.22C52.75 12.06 52.70 11.93 52.60 11.82C52.50 11.72 52.36 11.66 52.19 11.66C52.02 11.66 51.89 11.72 51.79 11.82C51.68 11.93 51.63 12.06 51.63 12.22ZM55.80 9.93C55.80 9.03 56.11 8.28 56.71 7.66C57.31 7.05 58.03 6.75 58.87 6.75C59.36 6.75 59.78 6.85 60.12 7.05C60.45 7.25 60.67 7.50 60.77 7.81L60.94 6.87C60.76 6.61 60.50 6.41 60.14 6.26C59.78 6.12 59.37 6.05 58.93 6.05C57.88 6.05 56.98 6.43 56.22 7.19C55.47 7.95 55.09 8.88 55.09 9.97C55.09 10.82 55.34 11.49 55.85 11.98C56.35 12.47 57.03 12.71 57.89 12.71C58.79 12.71 59.51 12.44 60.06 11.89L60.23 10.95C60.02 11.26 59.71 11.51 59.30 11.71C58.89 11.91 58.44 12.01 57.93 12.01C57.27 12.01 56.75 11.82 56.37 11.43C55.99 11.04 55.80 10.54 55.80 9.93ZM65.32 6.05C64.33 6.05 63.45 6.42 62.70 7.17C61.95 7.93 61.57 8.83 61.57 9.90C61.57 10.77 61.81 11.45 62.29 11.96C62.76 12.46 63.43 12.71 64.29 12.71C65.29 12.71 66.16 12.34 66.91 11.58C67.66 10.83 68.04 9.93 68.04 8.86C68.04 7.99 67.80 7.31 67.33 6.80C66.85 6.30 66.18 6.05 65.32 6.05ZM62.29 9.76C62.29 8.93 62.59 8.22 63.20 7.64C63.81 7.05 64.50 6.76 65.27 6.76C65.95 6.76 66.46 6.96 66.81 7.36C67.15 7.77 67.33 8.32 67.33 9.02C67.33 9.84 67.02 10.54 66.40 11.12C65.77 11.71 65.09 12.00 64.33 12.00C63.65 12.00 63.14 11.80 62.80 11.40C62.46 11.01 62.29 10.46 62.29 9.76ZM70.22 8.53C70.35 8.02 70.60 7.60 70.99 7.26C71.39 6.92 71.83 6.75 72.32 6.75C72.83 6.75 73.15 6.90 73.30 7.21C73.45 7.52 73.48 7.96 73.37 8.54L72.66 12.60L73.36 12.60L74.09 8.50C74.22 7.99 74.48 7.58 74.87 7.24C75.25 6.91 75.69 6.75 76.17 6.75C76.68 6.75 77.00 6.90 77.15 7.21C77.30 7.52 77.33 7.96 77.22 8.54L76.51 12.60L77.21 12.60L77.95 8.40C78.09 7.58 78.02 6.98 77.75 6.61C77.47 6.23 76.99 6.05 76.30 6.05C75.38 6.05 74.66 6.48 74.16 7.34C74.06 6.48 73.50 6.05 72.45 6.05C71.61 6.05 70.95 6.42 70.46 7.15L70.64 6.16L69.94 6.16L68.81 12.60L69.51 12.60Z"></path></g><!----><g data-v-d3f97b9e="" id="824f238f-0499-47ce-a51f-f1752a3fcdc4" transform="matrix(1.0503038167953491,0,0,1.0503038167953491,153.61216735839844,-2.80214786529541)" stroke="none" fill="black"><circle cx="13.1" cy="22" r="3.5"></circle><circle cx="37.8" cy="22" r="3.5"></circle><circle cx="64" cy="22" r="3.5"></circle><circle cx="13.1" cy="45.8" r="3.5"></circle><circle cx="37.8" cy="45.8" r="3.5"></circle><circle cx="63.4" cy="45.8" r="3.5"></circle><circle cx="13.1" cy="69.6" r="3.5"></circle><circle cx="37.8" cy="69.6" r="3.5"></circle><circle cx="63.4" cy="69.6" r="3.5"></circle><circle cx="87.8" cy="22" r="3.5"></circle><circle cx="87.8" cy="45.8" r="3.5"></circle><circle cx="87.8" cy="69.6" r="3.5"></circle><path d="M21.8 3.3c-5.4 0-4 14.7.3 14.7h5.5c2.9 0 5.4-4.2 10.3-4.2 5.2 0 8.1 3.9 8.1 8.4 0 2.9-1.1 7.6-1.1 11.2 0 15.1.1 56.8.1 61.4 0 3.8 11.6 4 11.6 0V32.7c0-3.3-1.1-7.7-1.1-10.5 0-4.7 3.5-8.4 8.1-8.4 5.5 0 8.3 4.3 8.7 8 .5 4.9 7.2 4.3 7-.5-.5-11.1-6.7-18.1-25.6-18.1-14 0-19 .1-24.7.1h-7.2z"></path><g><circle cx="13.1" cy="22" r="3.5"></circle><circle cx="37.8" cy="22" r="3.5"></circle><circle cx="64" cy="22" r="3.5"></circle><circle cx="13.1" cy="45.8" r="3.5"></circle><circle cx="37.8" cy="45.8" r="3.5"></circle><circle cx="63.4" cy="45.8" r="3.5"></circle><circle cx="13.1" cy="69.6" r="3.5"></circle><circle cx="37.8" cy="69.6" r="3.5"></circle><circle cx="63.4" cy="69.6" r="3.5"></circle><circle cx="87.8" cy="22" r="3.5"></circle><circle cx="87.8" cy="45.8" r="3.5"></circle><circle cx="87.8" cy="69.6" r="3.5"></circle></g></g><!----></svg>