<svg data-v-d3f97b9e="" xmlns="http://www.w3.org/2000/svg" viewBox="0 0 51.85801356719286 60"><!----><!----><!----><!----><g data-v-d3f97b9e="" id="0d33d1b1-f50d-420a-8d8e-3816f2227130" transform="matrix(0.634736955165863,0,0,0.634736955165863,-6.0934739112854,-2.0306615829467773)" stroke="none" fill="black"><circle cx="13.1" cy="22" r="3.5"></circle><circle cx="37.8" cy="22" r="3.5"></circle><circle cx="64" cy="22" r="3.5"></circle><circle cx="13.1" cy="45.8" r="3.5"></circle><circle cx="37.8" cy="45.8" r="3.5"></circle><circle cx="63.4" cy="45.8" r="3.5"></circle><circle cx="13.1" cy="69.6" r="3.5"></circle><circle cx="37.8" cy="69.6" r="3.5"></circle><circle cx="63.4" cy="69.6" r="3.5"></circle><circle cx="87.8" cy="22" r="3.5"></circle><circle cx="87.8" cy="45.8" r="3.5"></circle><circle cx="87.8" cy="69.6" r="3.5"></circle><path d="M21.8 3.3c-5.4 0-4 14.7.3 14.7h5.5c2.9 0 5.4-4.2 10.3-4.2 5.2 0 8.1 3.9 8.1 8.4 0 2.9-1.1 7.6-1.1 11.2 0 15.1.1 56.8.1 61.4 0 3.8 11.6 4 11.6 0V32.7c0-3.3-1.1-7.7-1.1-10.5 0-4.7 3.5-8.4 8.1-8.4 5.5 0 8.3 4.3 8.7 8 .5 4.9 7.2 4.3 7-.5-.5-11.1-6.7-18.1-25.6-18.1-14 0-19 .1-24.7.1h-7.2z"></path><g><circle cx="13.1" cy="22" r="3.5"></circle><circle cx="37.8" cy="22" r="3.5"></circle><circle cx="64" cy="22" r="3.5"></circle><circle cx="13.1" cy="45.8" r="3.5"></circle><circle cx="37.8" cy="45.8" r="3.5"></circle><circle cx="63.4" cy="45.8" r="3.5"></circle><circle cx="13.1" cy="69.6" r="3.5"></circle><circle cx="37.8" cy="69.6" r="3.5"></circle><circle cx="63.4" cy="69.6" r="3.5"></circle><circle cx="87.8" cy="22" r="3.5"></circle><circle cx="87.8" cy="45.8" r="3.5"></circle><circle cx="87.8" cy="69.6" r="3.5"></circle></g></g><!----></svg>