<?xml version="1.0" encoding="utf-8"?>
<!-- Generator: Adobe Illustrator 23.1.1, SVG Export Plug-In . SVG Version: 6.00 Build 0)  -->
<svg version="1.2" baseProfile="tiny" id="Layer_1" xmlns="http://www.w3.org/2000/svg" xmlns:xlink="http://www.w3.org/1999/xlink"
	 x="0px" y="0px" viewBox="0 0 245.7 138.2" xml:space="preserve">
<rect x="22" y="93.7" fill="#DBDBDB" width="202.9" height="35.4"/>
<rect x="8.2" y="27.3" fill="#3D3D3E" width="230.5" height="71.1"/>
<g>
	<path fill="#3D3D3E" d="M32.5,122.2l-2.8-6.3v7.6h-1.2v-9.8H30l3,6.8c1-2.3,2-4.6,3-6.8h1.5v9.8h-1.2v-7.6l-2.8,6.3H32.5z"/>
	<path fill="#3D3D3E" d="M47.6,113.6v6.9c0,1.3,1.3,2,2.6,2c1.3,0,2.6-0.6,2.6-2v-6.9h1.2v6.9c0,2.1-1.9,3.1-3.7,3.1
		c-1.9,0-3.7-1.1-3.7-3.1v-6.9H47.6z"/>
	<path fill="#3D3D3E" d="M68.8,123.4h-5.9v-9.8h1.2v8.6h4.7V123.4z"/>
	<path fill="#3D3D3E" d="M81.2,113.6v1.2h-3.1v8.7h-1.2v-8.7h-3.1v-1.2H81.2z"/>
	<path fill="#3D3D3E" d="M89.2,113.6h1.1v9.8h-1.1V113.6z"/>
	<path fill="#3D3D3E" d="M102.3,117.8c1.7,0.3,3.6,0.7,3.4,3.1c-0.1,1.8-1.8,2.7-3.6,2.7c-1.5,0-3-0.7-3.6-2.1l1.1-0.5
		c0.4,0.9,1.5,1.4,2.6,1.4c1.2,0,2.3-0.5,2.4-1.6c0.1-1.4-1.2-1.7-2.6-2c-1.6-0.3-3.3-0.8-3.3-2.8c0.1-1.7,1.8-2.6,3.4-2.6
		c1.5,0,3,0.7,3.6,2l-1.1,0.5c-0.4-0.9-1.5-1.4-2.5-1.4c-1.1,0-2.2,0.5-2.3,1.6C99.9,117.3,101.1,117.5,102.3,117.8z"/>
	<path fill="#3D3D3E" d="M120.6,114.8h-5.1v3.2h4.7v1.2h-4.7v3.2h5.1v1.2h-6.3v-9.8h6.3V114.8z"/>
	<path fill="#3D3D3E" d="M136.4,123.4H135l-3.2-4h-1.5v4h-1.2v-9.8h3.7c1.9,0,3.3,0.8,3.4,2.9c0,2-1.3,2.8-3,2.9L136.4,123.4z
		 M132.9,118.4c1.3,0,2.2-0.4,2.2-1.8c0-1.4-0.9-1.8-2.2-1.8h-2.6v3.6H132.9z"/>
	<path fill="#3D3D3E" d="M147.2,123.4l-3.5-9.8h1.2l3,8.5l3-8.5h1.2l-3.5,9.8H147.2z"/>
	<path fill="#3D3D3E" d="M160,113.6h1.1v9.8H160V113.6z"/>
	<path fill="#3D3D3E" d="M173.5,113.5c1.4,0,2.8,0.6,3.5,2l-1,0.5c-0.5-0.9-1.5-1.3-2.5-1.3c-1.3,0-2.5,0.6-2.5,1.9v3.9
		c0,1.3,1.3,1.9,2.5,1.9c1,0,2-0.4,2.5-1.3l1,0.5c-0.6,1.3-2.1,2-3.5,2c-1.8,0-3.7-1-3.7-3.1v-3.9
		C169.8,114.6,171.6,113.5,173.5,113.5z"/>
	<path fill="#3D3D3E" d="M185.1,113.6h1.1v9.8h-1.1V113.6z"/>
	<path fill="#3D3D3E" d="M198.9,113.4c2,0,3.9,1,3.9,3.1v4.1c0,2-2,3.1-3.9,3.1c-2,0-3.9-1-3.9-3.1v-4.1
		C195,114.4,197,113.4,198.9,113.4z M196.2,120.6c0,1.3,1.4,1.9,2.8,1.9c1.4,0,2.8-0.7,2.8-1.9v-4.1c0-1.4-1.4-1.9-2.8-1.9
		c-1.4,0-2.8,0.6-2.8,1.9V120.6z"/>
	<path fill="#3D3D3E" d="M214.8,117.8c1.7,0.3,3.6,0.7,3.4,3.1c-0.1,1.8-1.8,2.7-3.6,2.7c-1.5,0-3-0.7-3.6-2.1l1.1-0.5
		c0.4,0.9,1.5,1.4,2.6,1.4c1.2,0,2.3-0.5,2.4-1.6c0.1-1.4-1.2-1.7-2.6-2c-1.6-0.3-3.3-0.8-3.3-2.8c0.1-1.7,1.8-2.6,3.4-2.6
		c1.5,0,3,0.7,3.6,2l-1.1,0.5c-0.4-0.9-1.5-1.4-2.5-1.4c-1.1,0-2.2,0.5-2.3,1.6C212.4,117.3,213.6,117.5,214.8,117.8z"/>
</g>
<rect x="49.7" y="90.5" fill="#F8941D" width="13.5" height="15.4"/>
<rect x="189.8" y="90.5" fill="#F8941D" width="13.5" height="15.4"/>
<g>
	<polygon fill="#3D3D3E" points="189.7,27.5 179.6,27.5 179.6,15.4 66.6,15.4 66.6,27.5 57.2,27.5 57.2,5 189.7,5 	"/>
</g>
<path fill="#FFFFFF" d="M25.1,79.7c0.1,0,10.7-2.7,10.7-2.7l-2.8,2.3L29.4,86L25.1,79.7z"/>
<g>
	<path fill="#FFFFFF" d="M11.8,33.7h35.6l-1.3,7.6H33.7v3.4l-8.3,2.6v-5.9H11.8V33.7z"/>
	<path fill="#FFFFFF" d="M69.7,86.6h-8.4L59.9,77H49.7l-1.4,9.6h-7.6l8.5-52.9h12.2L69.7,86.6z M50.7,69.9h8l-4-26.8L50.7,69.9z"/>
	<path fill="#FFFFFF" d="M70.6,33.7H79v45.3h14.9l-1.2,7.6h-22V33.7z"/>
	<path fill="#FFFFFF" d="M123.5,86.6h-8.4l-1.4-9.6h-10.2l-1.4,9.6h-7.6l8.5-52.9H115L123.5,86.6z M104.5,69.9h8l-4-26.8L104.5,69.9
		z"/>
	<path fill="#FFFFFF" d="M147.5,66.9v7c0,4.3-1,7.6-3.1,9.9c-2.1,2.3-5.2,3.4-9.3,3.4c-4.1,0-7.2-1.1-9.3-3.4
		c-2.1-2.3-3.1-5.6-3.1-9.9V46.4c0-4.3,1-7.6,3.1-9.9c2.1-2.3,5.2-3.4,9.3-3.4c4.1,0,7.2,1.1,9.3,3.4c2.1,2.3,3.1,5.6,3.1,9.9v5.1
		h-7.9v-5.7c0-1.9-0.4-3.3-1.2-4c-0.8-0.8-1.8-1.2-3.1-1.2c-1.3,0-2.4,0.4-3.1,1.2c-0.8,0.8-1.2,2.1-1.2,4v28.6c0,1.9,0.4,3.3,1.2,4
		c0.8,0.8,1.8,1.1,3.1,1.1c1.3,0,2.4-0.4,3.1-1.1c0.8-0.8,1.2-2.1,1.2-4v-7.6H147.5z"/>
	<path fill="#FFFFFF" d="M158,86.6h-8.3V33.7h8.3v22.7h9.4V33.7h8.5v52.9h-8.5V64H158V86.6z"/>
	<path fill="#FFFFFF" d="M206,86.6h-8.4l-1.4-9.6H186l-1.4,9.6h-7.6l8.5-52.9h12.2L206,86.6z M187,69.9h8l-4-26.8L187,69.9z"/>
	<path fill="#FFFFFF" d="M231.7,33.7v7.4l-15.8,37.9h15.8v7.6h-24.3v-7.4l15.8-37.9h-15v-7.6H231.7z"/>
	<path fill="#FFFFFF" d="M22.4,77.4c0.2,0,10.6-2.5,10.6-2.5v-1.8l2.8-2.8l-10.4,3v1.4L22.4,77.4z"/>
	<path fill="#FFFFFF" d="M22.4,71.5C22.6,71.5,33,69,33,69v-1.8l2.8-2.8l-10.4,3V69L22.4,71.5z"/>
	<path fill="#FFFFFF" d="M22.5,59.8c0.2,0,10.6-2.5,10.6-2.5v-1.8l2.8-2.8l-10.4,3v1.4L22.5,59.8z"/>
	<path fill="#FFFFFF" d="M22.5,65.6c0.2,0,10.6-2.5,10.6-2.5v-1.8l2.8-2.8l-10.4,3v1.4L22.5,65.6z"/>
	<path fill="#FFFFFF" d="M22.5,53.9c0.2,0,10.6-2.5,10.6-2.5v-1.8l2.8-2.8l-10.4,3v1.4L22.5,53.9z"/>
</g>
</svg>
