<?xml version="1.0" encoding="utf-8"?>
<!-- Generator: Adobe Illustrator 23.1.1, SVG Export Plug-In . SVG Version: 6.00 Build 0)  -->
<svg version="1.2" baseProfile="tiny" id="Layer_1" xmlns="http://www.w3.org/2000/svg" xmlns:xlink="http://www.w3.org/1999/xlink"
	 x="0px" y="0px" viewBox="0 0 120 120" xml:space="preserve">
<rect x="7.8" y="30.1" fill="#3E3E3F" width="104.3" height="87.2"/>
<g>
	<polygon fill="#3E3E3F" points="36.9,30.3 24.5,30.3 24.5,15.5 95.5,15.5 95.5,30.3 84,30.3 84,2.7 36.9,2.7 	"/>
</g>
<g>
	<path fill="#FFFFFF" d="M54.3,100.7c0.2,0,14-3.6,14-3.6l-3.7,3.1l-4.7,8.9L54.3,100.7z"/>
	<g>
		<path fill="#FFFFFF" d="M26.6,40.2h66.7l-1.7,9.9h-26v4.5l-10.9,3.4v-7.8H26.6V40.2z"/>
		<path fill="#FFFFFF" d="M50.8,97.7c0.3-0.1,13.9-3.3,13.9-3.3v-2.3l3.6-3.6l-13.7,4v1.9L50.8,97.7z"/>
		<path fill="#FFFFFF" d="M50.8,90c0.3-0.1,13.9-3.3,13.9-3.3v-2.3l3.6-3.6l-13.7,4v1.9L50.8,90z"/>
		<path fill="#FFFFFF" d="M50.9,74.5c0.3-0.1,13.9-3.3,13.9-3.3v-2.3l3.6-3.6l-13.7,4v1.9L50.9,74.5z"/>
		<path fill="#FFFFFF" d="M50.9,82.3c0.3-0.1,13.9-3.3,13.9-3.3v-2.3l3.6-3.6l-13.7,4v1.9L50.9,82.3z"/>
		<path fill="#FFFFFF" d="M50.9,66.8c0.3-0.1,13.9-3.3,13.9-3.3v-2.3l3.6-3.6l-13.7,4v1.9L50.9,66.8z"/>
	</g>
</g>
</svg>
