<svg data-v-29081953="" xmlns="http://www.w3.org/2000/svg" viewBox="0 0 300 300"><!----><defs data-v-29081953=""><!----></defs><rect data-v-29081953="" fill="#423833" x="0" y="0" width="300px" height="300px" class="logo-background-square"></rect><!----><defs data-v-29081953=""><!----></defs><g data-v-29081953="" id="5e6fe87f-eaee-4c0e-b538-525d598570cd" fill="#D1793F" stroke="none" transform="matrix(2.327368974685669,0,0,2.327368974685669,32.5842328033958,32.55423777842058)"><circle cx="13.1" cy="22" r="3.5"></circle><circle cx="37.8" cy="22" r="3.5"></circle><circle cx="64" cy="22" r="3.5"></circle><circle cx="13.1" cy="45.8" r="3.5"></circle><circle cx="37.8" cy="45.8" r="3.5"></circle><circle cx="63.4" cy="45.8" r="3.5"></circle><circle cx="13.1" cy="69.6" r="3.5"></circle><circle cx="37.8" cy="69.6" r="3.5"></circle><circle cx="63.4" cy="69.6" r="3.5"></circle><circle cx="87.8" cy="22" r="3.5"></circle><circle cx="87.8" cy="45.8" r="3.5"></circle><circle cx="87.8" cy="69.6" r="3.5"></circle><path d="M21.8 3.3c-5.4 0-4 14.7.3 14.7h5.5c2.9 0 5.4-4.2 10.3-4.2 5.2 0 8.1 3.9 8.1 8.4 0 2.9-1.1 7.6-1.1 11.2 0 15.1.1 56.8.1 61.4 0 3.8 11.6 4 11.6 0V32.7c0-3.3-1.1-7.7-1.1-10.5 0-4.7 3.5-8.4 8.1-8.4 5.5 0 8.3 4.3 8.7 8 .5 4.9 7.2 4.3 7-.5-.5-11.1-6.7-18.1-25.6-18.1-14 0-19 .1-24.7.1h-7.2z"></path><g><circle cx="13.1" cy="22" r="3.5"></circle><circle cx="37.8" cy="22" r="3.5"></circle><circle cx="64" cy="22" r="3.5"></circle><circle cx="13.1" cy="45.8" r="3.5"></circle><circle cx="37.8" cy="45.8" r="3.5"></circle><circle cx="63.4" cy="45.8" r="3.5"></circle><circle cx="13.1" cy="69.6" r="3.5"></circle><circle cx="37.8" cy="69.6" r="3.5"></circle><circle cx="63.4" cy="69.6" r="3.5"></circle><circle cx="87.8" cy="22" r="3.5"></circle><circle cx="87.8" cy="45.8" r="3.5"></circle><circle cx="87.8" cy="69.6" r="3.5"></circle></g></g><!----></svg>